<svg xmlns="http://www.w3.org/2000/svg" fill="none" viewBox="0 0 24 24" stroke-width="2" stroke-linecap="round" stroke-linejoin="round" stroke="currentColor" aria-hidden="true">
  <path stroke-linecap="round" stroke-linejoin="round" d="m12.2 11.8-1.41 1.41c-.78.78-.78 2.05 0 2.83s2.05.78 2.83 0l2.22-2.22a4.01 4.01 0 0 0 0-5.66 4.01 4.01 0 0 0-5.66 0l-2.42 2.42a3.43 3.43 0 0 0 0 4.85"/>
  <path stroke-linecap="round" stroke-linejoin="round" d="M9 22h6c5 0 7-2 7-7V9c0-5-2-7-7-7H9C4 2 2 4 2 9v6c0 5 2 7 7 7"/>
</svg>
