<svg xmlns="http://www.w3.org/2000/svg" fill="none" viewBox="0 0 24 24" stroke-width="2" stroke-linecap="round" stroke-linejoin="round" stroke="currentColor" aria-hidden="true">
  <path stroke-linecap="round" stroke-linejoin="round" stroke-miterlimit="10" d="M8 2v3M16 2v3"/>
  <path stroke-linecap="round" stroke-linejoin="round" d="M18.2 21.4a3.2 3.2 0 1 0 0-6.4 3.2 3.2 0 0 0 0 6.4M22 22l-1-1"/>
  <path stroke-linecap="round" stroke-linejoin="round" stroke-miterlimit="10" d="M3.5 9.09h17M13.37 22H8c-3.5 0-5-2-5-5V8.5c0-3 1.5-5 5-5h8c3.5 0 5 2 5 5V13"/>
  <path stroke-linecap="round" stroke-linejoin="round" d="M11.996 13.7h.008M8.294 13.7h.01M8.294 16.7h.01"/>
</svg>
