<svg xmlns="http://www.w3.org/2000/svg" fill="none" viewBox="0 0 24 24" stroke-width="2" stroke-linecap="round" stroke-linejoin="round" stroke="currentColor" aria-hidden="true">
  <path stroke-linecap="round" stroke-linejoin="round" stroke-miterlimit="10" d="M10.11 11.15H7.46c-.63 0-1.14.51-1.14 1.14v5.12h3.79z"/>
  <path stroke-linecap="round" stroke-linejoin="round" stroke-miterlimit="10" d="M12.761 6.6h-1.52c-.63 0-1.14.51-1.14 1.14v9.66h3.79V7.74c0-.63-.5-1.14-1.13-1.14M16.548 12.85h-2.65v4.55h3.79v-3.41c-.01-.63-.52-1.14-1.14-1.14"/>
  <path stroke-linecap="round" stroke-linejoin="round" d="M9 22h6c5 0 7-2 7-7V9c0-5-2-7-7-7H9C4 2 2 4 2 9v6c0 5 2 7 7 7"/>
</svg>
