<svg xmlns="http://www.w3.org/2000/svg" fill="none" viewBox="0 0 24 24" stroke-width="2" stroke-linecap="round" stroke-linejoin="round" stroke="currentColor" aria-hidden="true">
  <path stroke-linecap="round" stroke-linejoin="round" d="M12 2v6l2-2M12 8l-2-2"/>
  <path stroke-linecap="round" stroke-linejoin="round" stroke-miterlimit="10" d="M7 12c-4 0-4 1.79-4 4v1c0 2.76 0 5 5 5h8c4 0 5-2.24 5-5v-1c0-2.21 0-4-4-4-1 0-1.28.21-1.8.6l-1.02 1.08a3 3 0 0 1-4.37 0L8.8 12.6C8.28 12.21 8 12 7 12M5 12V8c0-2.01 0-3.67 3-3.96M19 12V8c0-2.01 0-3.67-3-3.96"/>
</svg>
