<svg xmlns="http://www.w3.org/2000/svg" fill="none" viewBox="0 0 24 24" stroke-width="2" stroke-linecap="round" stroke-linejoin="round" stroke="currentColor" aria-hidden="true">
  <path stroke-linecap="round" stroke-linejoin="round" d="M9 22h6c5 0 7-2 7-7V9c0-5-2-7-7-7H9C4 2 2 4 2 9v6c0 5 2 7 7 7"/>
  <path stroke-linecap="round" stroke-linejoin="round" d="m6.99 15.08 1.94 1.94c.64.64 1.7.64 2.34 0l5.75-5.75c.64-.64.64-1.7 0-2.34l-1.94-1.94c-.64-.64-1.7-.64-2.34 0l-5.75 5.75c-.65.64-.65 1.69 0 2.34M9.31 10.42l4.27 4.27"/>
</svg>
