<svg xmlns="http://www.w3.org/2000/svg" fill="none" viewBox="0 0 24 24" stroke-width="2" stroke-linecap="round" stroke-linejoin="round" stroke="currentColor" aria-hidden="true">
  <path stroke-linecap="round" stroke-linejoin="round" d="M9 10a2 2 0 1 0 0-4 2 2 0 0 0 0 4"/>
  <path stroke-linecap="round" stroke-linejoin="round" d="M13 2H9C4 2 2 4 2 9v6c0 5 2 7 7 7h6c5 0 7-2 7-7v-5"/>
  <path stroke-linecap="round" d="M15.75 5h5.5M18.5 7.75v-5.5"/>
  <path stroke-linecap="round" stroke-linejoin="round" d="m2.67 18.95 4.93-3.31c.79-.53 1.93-.47 2.64.14l.33.29c.78.67 2.04.67 2.82 0l4.16-3.57c.78-.67 2.04-.67 2.82 0L22 13.9"/>
</svg>
