<svg xmlns="http://www.w3.org/2000/svg" fill="none" viewBox="0 0 24 24" stroke-width="2" stroke-linecap="round" stroke-linejoin="round" stroke="currentColor" aria-hidden="true">
  <path stroke-linecap="round" stroke-linejoin="round" d="M12 22c5.523 0 10-4.477 10-10S17.523 2 12 2 2 6.477 2 12s4.477 10 10 10"/>
  <path stroke-linecap="round" stroke-linejoin="round" d="M8 3h1a28.42 28.42 0 0 0 0 18H8M15 3a28.42 28.42 0 0 1 0 18"/>
  <path stroke-linecap="round" stroke-linejoin="round" d="M3 16v-1a28.42 28.42 0 0 0 18 0v1M3 9a28.42 28.42 0 0 1 18 0"/>
</svg>
