<svg xmlns="http://www.w3.org/2000/svg" fill="none" viewBox="0 0 24 24" stroke-width="2" stroke-linecap="round" stroke-linejoin="round" stroke="currentColor" aria-hidden="true">
  <path stroke-linecap="round" stroke-linejoin="round" d="M5 9v7M5.25 8.5a3.25 3.25 0 1 0 0-6.5 3.25 3.25 0 0 0 0 6.5M5 22a3 3 0 1 0 0-6 3 3 0 0 0 0 6M19 22a3 3 0 1 0 0-6 3 3 0 0 0 0 6"/>
  <path stroke-linecap="round" stroke-linejoin="round" d="M5.13 9a4.06 4.06 0 0 0 3.94 3.04l3.43-.01a5.99 5.99 0 0 1 5.67 4.01"/>
</svg>
