<svg xmlns="http://www.w3.org/2000/svg" fill="none" viewBox="0 0 24 24" stroke-width="2" stroke-linecap="round" stroke-linejoin="round" stroke="currentColor" aria-hidden="true">
  <path stroke-linecap="round" stroke-linejoin="round" stroke-miterlimit="10" d="M22 10v3q0 6-6 6h-.5c-.31 0-.61.15-.8.4l-1.5 2c-.66.88-1.74.88-2.4 0l-1.5-2c-.16-.22-.53-.4-.8-.4H8c-4 0-6-1-6-6V8q0-6 6-6h6"/>
  <path stroke-linecap="round" stroke-linejoin="round" d="M19.5 7a2.5 2.5 0 1 0 0-5 2.5 2.5 0 0 0 0 5"/>
  <path stroke-linecap="round" stroke-linejoin="round" d="M15.997 11h.008M11.996 11h.008M7.995 11h.008"/>
</svg>
