<svg xmlns="http://www.w3.org/2000/svg" fill="none" viewBox="0 0 24 24" stroke-width="2" stroke-linecap="round" stroke-linejoin="round" stroke="currentColor" aria-hidden="true">
  <path stroke-linecap="round" stroke-linejoin="round" stroke-miterlimit="10" d="M13.2 21.37c-.66.88-1.74.88-2.4 0l-1.5-2c-.17-.22-.53-.4-.8-.4H8c-4 0-6-1-6-6v-5q0-6 6-6h8q6 0 6 6v5"/>
  <path stroke-linecap="round" stroke-linejoin="round" d="M18.2 21.4a3.2 3.2 0 1 0 0-6.4 3.2 3.2 0 0 0 0 6.4M22 22l-1-1"/>
  <path stroke-linecap="round" stroke-linejoin="round" d="M15.997 11h.008M11.996 11h.008M7.995 11h.008"/>
</svg>
