<svg xmlns="http://www.w3.org/2000/svg" fill="none" viewBox="0 0 24 24" stroke-width="2" stroke-linecap="round" stroke-linejoin="round" stroke="currentColor" aria-hidden="true">
  <path stroke-linecap="round" stroke-linejoin="round" stroke-miterlimit="10" d="M8.5 18.97H8c-4 0-6-1-6-6v-5q0-6 6-6h8q6 0 6 6v5q0 6-6 6h-.5c-.31 0-.61.15-.8.4l-1.5 2c-.66.88-1.74.88-2.4 0l-1.5-2c-.16-.22-.52-.4-.8-.4"/>
  <path stroke-linecap="round" stroke-linejoin="round" stroke-miterlimit="10" d="m8 8.7-2 2 2 2M16 8.7l2 2-2 2M13 8.37l-2 4.66"/>
</svg>
