<svg xmlns="http://www.w3.org/2000/svg" fill="none" viewBox="0 0 24 24" stroke-width="2" stroke-linecap="round" stroke-linejoin="round" stroke="currentColor" aria-hidden="true">
  <path stroke-linecap="round" stroke-linejoin="round" stroke-miterlimit="10" d="M2 3h20M2 9h9M2 15h6M2 21h4"/>
  <path stroke-linecap="round" stroke-linejoin="round" d="M11.84 22a2.18 2.18 0 1 0 0-4.36 2.18 2.18 0 0 0 0 4.36"/>
  <path stroke-linecap="round" stroke-linejoin="round" d="M22 18.37V9.86c0-1.81-1.14-2.06-2.29-1.75L15.36 9.3c-.79.22-1.34.84-1.34 1.75v8.77"/>
  <path stroke-linecap="round" stroke-linejoin="round" d="M19.82 20.55a2.18 2.18 0 1 0 0-4.36 2.18 2.18 0 0 0 0 4.36M14.02 13.6 22 11.42"/>
</svg>
