<svg xmlns="http://www.w3.org/2000/svg" fill="none" viewBox="0 0 24 24" stroke-width="2" stroke-linecap="round" stroke-linejoin="round" stroke="currentColor" aria-hidden="true">
  <path stroke-linecap="round" stroke-linejoin="round" d="M22 15V9c0-5-2-7-7-7H9C4 2 2 4 2 9v6c0 5 2 7 7 7h6c5 0 7-2 7-7"/>
  <path stroke-linecap="round" stroke-linejoin="round" d="M17 16.75h-3.1l1.62-1.79c.8-.89 1.24-2.02 1.24-3.18 0-1.2-.5-2.35-1.39-3.2S13.27 7.25 12 7.25c-1.26 0-2.47.48-3.37 1.33-.89.85-1.39 2-1.39 3.2 0 1.17.44 2.3 1.24 3.18l1.62 1.79H7"/>
</svg>
