<svg xmlns="http://www.w3.org/2000/svg" fill="none" viewBox="0 0 24 24" stroke-width="2" stroke-linecap="round" stroke-linejoin="round" stroke="currentColor" aria-hidden="true">
  <path stroke-linecap="round" stroke-linejoin="round" d="M11.97 22c5.523 0 10-4.477 10-10s-4.477-10-10-10-10 4.477-10 10 4.477 10 10 10"/>
  <path stroke-linecap="round" stroke-linejoin="round" d="M10.72 14.53V9.47c0-.48-.2-.67-.71-.67h-1.3c-.51 0-.71.19-.71.67v5.06c0 .48.2.67.71.67H10c.52 0 .72-.19.72-.67M16 14.53V9.47c0-.48-.2-.67-.71-.67H14c-.51 0-.71.19-.71.67v5.06c0 .48.2.67.71.67h1.29c.51 0 .71-.19.71-.67"/>
</svg>
