<svg xmlns="http://www.w3.org/2000/svg" fill="none" viewBox="0 0 24 24" stroke-width="2" stroke-linecap="round" stroke-linejoin="round" stroke="currentColor" aria-hidden="true">
  <path stroke-linecap="round" stroke-linejoin="round" d="M9 22h6c5 0 7-2 7-7V9c0-5-2-7-7-7H9C4 2 2 4 2 9v6c0 5 2 7 7 7"/>
  <path stroke-linecap="round" stroke-linejoin="round" d="M8.42 10.9a1.92 1.92 0 1 0 0-3.84 1.92 1.92 0 0 0 0 3.84M8.42 16.94a1.92 1.92 0 1 0 0-3.84 1.92 1.92 0 0 0 0 3.84M17.5 8.7l-7.34 5.49M17.5 15.28l-7.34-5.49"/>
</svg>
