<svg width="225" height="48" viewBox="0 0 225 48" fill="none" xmlns="http://www.w3.org/2000/svg">
<g id="&#208;&#161;&#208;&#187;&#208;&#190;&#208;&#185;_x0020_1">
<path id="Vector" fill-rule="evenodd" clip-rule="evenodd" d="M15.2078 39.3353L0.429199 28.7645V48H15.2135L15.2078 39.3353Z" fill="white"/>
<path id="Vector_2" fill-rule="evenodd" clip-rule="evenodd" d="M0.429443 19.4866L19.4233 33.3061L48.3439 14.8102V0L19.4233 18.4955L0.429443 4.67592V19.4866Z" fill="#38AA3D"/>
<path id="Vector_3" fill-rule="evenodd" clip-rule="evenodd" d="M33.5593 33.5218V48H48.3436V24.0671L33.5593 33.5218Z" fill="white"/>
<path id="Vector_4" d="M85.4647 35.832L85.397 23.2904L79.3232 33.4995H76.3535L70.3128 23.6285V35.832H64.1377V12.1685H69.6383L77.9396 25.8258L86.0384 12.1685H91.539L91.6066 35.832H85.4651H85.4647ZM105.442 27.2455L102.944 29.9161V35.832H96.3306V12.1685H102.944V22.0058L112.089 12.1685H119.445L109.795 22.6483L119.952 35.8324H112.191L105.442 27.246V27.2455ZM139.862 23.4933C141.212 23.9666 142.269 24.7048 143.034 25.7077C143.798 26.7106 144.181 27.9217 144.181 29.3418C144.181 31.415 143.348 33.0153 141.684 34.142C140.019 35.2686 137.612 35.8324 134.462 35.8324H121.707V12.169H133.787C136.802 12.169 139.097 12.7266 140.672 13.8423C142.246 14.9581 143.034 16.4622 143.034 18.3555C143.034 19.4822 142.758 20.4908 142.207 21.3808C141.656 22.2713 140.874 22.9755 139.862 23.4938V23.4933ZM128.321 17.0028V21.5667H132.91C135.16 21.5667 136.285 20.8004 136.285 19.2679C136.285 17.7581 135.16 17.0028 132.91 17.0028H128.321ZM133.923 30.9982C136.262 30.9982 137.432 30.1982 137.432 28.5979C137.432 26.998 136.262 26.1976 133.923 26.1976H128.321V30.9982H133.923ZM163.483 31.2348H153.495L151.639 35.8324H144.822L155.249 12.169H161.83L172.291 35.8324H165.339L163.483 31.2348ZM161.526 26.2991L158.489 18.7269L155.452 26.2991H161.526ZM196.655 12.1685V35.832H191.154L180.727 23.2226V35.832H174.181V12.1685H179.681L190.108 24.7779V12.1685H196.655H196.655ZM210.49 27.2455L207.992 29.9161V35.832H201.379V12.1685H207.992V22.0058L217.137 12.1685H224.493L214.843 22.6483L225 35.8324H217.239L210.49 27.246V27.2455Z" fill="white"/>
</g>
</svg>
