<svg width="24" height="25" viewBox="0 0 24 25" fill="none" xmlns="http://www.w3.org/2000/svg">
<g id="vuesax/linear/password-check">
<g id="password-check">
<path id="Vector" d="M11.02 20H7.5C6.88 20 6.33 19.98 5.84 19.91C3.21 19.62 2.5 18.38 2.5 15V10C2.5 6.62 3.21 5.38 5.84 5.09C6.33 5.02 6.88 5 7.5 5H10.96" stroke="#D4E0FA" stroke-width="1.5" stroke-linecap="round" stroke-linejoin="round"/>
<path id="Vector_2" d="M15.02 5H16.5C17.12 5 17.67 5.02 18.16 5.09C20.79 5.38 21.5 6.62 21.5 10V15C21.5 18.38 20.79 19.62 18.16 19.91C17.67 19.98 17.12 20 16.5 20H15.02" stroke="#D4E0FA" stroke-width="1.5" stroke-linecap="round" stroke-linejoin="round"/>
<path id="Vector_3" d="M15 2.5V22.5" stroke="#D4E0FA" stroke-width="1.5" stroke-linecap="round" stroke-linejoin="round"/>
<path id="Vector_4" d="M11.0945 12.5H11.1035" stroke="#D4E0FA" stroke-width="2" stroke-linecap="round" stroke-linejoin="round"/>
<path id="Vector_5" d="M7.09448 12.5H7.10346" stroke="#D4E0FA" stroke-width="2" stroke-linecap="round" stroke-linejoin="round"/>
</g>
</g>
</svg>
