<svg width="290" height="48" viewBox="0 0 290 48" fill="none" xmlns="http://www.w3.org/2000/svg">
  <g clip-path="url(#clip0_1386_3020)">
    <path d="M151.573 18.6722L157.961 0H159.728L166.092 18.6722H163.833L162.3 14.0834H155.313L153.78 18.6722H151.573ZM155.936 12.1377H161.65L158.713 3.55453L155.936 12.1377Z" fill="white"/>
    <path d="M174.949 17.7132C173.942 18.3433 172.741 18.6603 171.339 18.6603C169.936 18.6603 168.775 18.4463 167.859 18.0223V16.2827C168.466 16.5046 169.191 16.675 170.043 16.7939C170.388 16.8613 170.812 16.8969 171.315 16.8969C172.127 16.8969 172.844 16.7543 173.459 16.461C174.073 16.1717 174.382 15.6764 174.382 14.979C174.382 14.4836 174.192 14.0755 173.811 13.7505C173.411 13.4454 172.686 13.1363 171.628 12.8312C171.176 12.7123 170.708 12.5419 170.225 12.32C169.464 12.0307 168.87 11.5988 168.446 11.0282C168.022 10.4576 167.808 9.77993 167.808 8.99532C167.808 7.76689 168.275 6.87925 169.211 6.32447C170.146 5.7697 171.279 5.49231 172.615 5.49231C173.673 5.49231 174.691 5.65478 175.682 5.97972V7.71934C174.814 7.37855 173.795 7.20815 172.615 7.20815C171.885 7.20815 171.247 7.33892 170.693 7.60442C170.138 7.86992 169.86 8.32563 169.86 8.97155C169.86 9.95826 170.768 10.6676 172.587 11.0916C173.157 11.2461 173.649 11.4086 174.053 11.575C174.461 11.7454 174.861 11.9673 175.262 12.2408C175.658 12.5142 175.959 12.8629 176.157 13.2869C176.355 13.7149 176.454 14.2063 176.454 14.769C176.454 16.0965 175.951 17.0792 174.949 17.7093V17.7132Z" fill="white"/>
    <path d="M180.041 18.6722V8.34938C180.041 7.96896 179.918 7.68365 179.676 7.49344C179.399 7.31908 179.042 7.22397 178.61 7.20812H178.349V5.7023C178.939 5.56361 179.458 5.49624 179.906 5.49624C181.463 5.49624 182.244 6.26501 182.244 7.80253V18.6682H180.037L180.041 18.6722ZM180.948 2.77388C180.568 2.77388 180.247 2.64707 179.985 2.39742C179.708 2.16363 179.569 1.8268 179.569 1.38694C179.569 0.978783 179.696 0.645918 179.946 0.388343C180.195 0.130769 180.54 0 180.972 0C181.404 0 181.753 0.130769 182.01 0.388343C182.272 0.645918 182.398 0.970858 182.398 1.36316C182.398 1.75547 182.268 2.10815 182.01 2.37365C181.749 2.63915 181.396 2.77388 180.944 2.77388H180.948Z" fill="white"/>
    <path d="M195.158 18.6722C194.017 18.6722 193.28 18.05 192.951 16.8018C192.9 16.8533 192.808 16.9484 192.678 17.0832C192.547 17.2218 192.44 17.3328 192.353 17.416C191.505 18.2521 190.395 18.6722 189.028 18.6722C187.851 18.6722 186.88 18.375 186.119 17.7766C185.359 17.1783 184.978 16.3184 184.978 15.189C184.978 12.5934 186.9 11.2105 190.744 11.0401L192.82 10.937V10.3228C192.82 9.26478 192.626 8.49998 192.238 8.03238C191.849 7.56478 191.124 7.32702 190.07 7.32702C189.016 7.32702 187.673 7.52516 186.147 7.91746V6.20162C187.308 5.72214 188.683 5.48438 190.276 5.48438C193.446 5.48438 195.031 6.81584 195.031 9.47876V15.8825C195.031 16.6354 195.551 17.0079 196.589 17.0079H196.72V18.4939L196.565 18.5454C196.478 18.5612 196.399 18.581 196.331 18.5969C196.089 18.6484 195.697 18.6722 195.162 18.6722H195.158ZM189.365 16.9563C190.007 16.9563 190.645 16.8256 191.287 16.5601C191.929 16.2946 192.44 15.934 192.82 15.4703V12.5261L191.132 12.6014C190.593 12.637 190.149 12.6766 189.793 12.7282C189.436 12.7797 189.04 12.8867 188.596 13.0491C188.156 13.2116 187.819 13.4573 187.597 13.7902C187.372 14.123 187.261 14.5391 187.261 15.0305C187.261 15.6447 187.455 16.1202 187.847 16.4531C188.235 16.786 188.743 16.9524 189.365 16.9524V16.9563Z" fill="white"/>
    <path d="M203.159 18.6722L209.551 0H211.318L217.682 18.6722H215.423L213.89 14.0834H206.904L205.37 18.6722H203.163H203.159ZM207.522 12.1377H213.236L210.3 3.55453L207.522 12.1377Z" fill="white"/>
    <path d="M222.616 18.6722C220.971 18.6722 220.147 17.6855 220.147 15.716V2.88087C220.147 2.50045 220.044 2.22307 219.834 2.05267C219.608 1.87831 219.323 1.78321 218.978 1.76736C218.926 1.75151 218.855 1.73962 218.772 1.73962H218.566V0.233798C218.689 0.166433 218.815 0.122843 218.954 0.10303C219.299 0.0356642 219.691 0 220.123 0C221.613 0 222.358 0.673656 222.358 2.02097V15.1176C222.358 15.7239 222.461 16.1717 222.671 16.465C222.877 16.7582 223.27 16.9167 223.84 16.9326H223.971V18.4899C223.971 18.4899 223.9 18.5018 223.816 18.5295C223.729 18.5573 223.662 18.5771 223.61 18.5929C223.297 18.6444 222.968 18.6722 222.624 18.6722H222.616Z" fill="white"/>
    <path d="M229.424 18.6722C227.779 18.6722 226.955 17.6855 226.955 15.716V2.88087C226.955 2.50045 226.852 2.22307 226.642 2.05267C226.416 1.87831 226.131 1.78321 225.786 1.76736C225.734 1.75151 225.663 1.73962 225.58 1.73962H225.374V0.233798C225.497 0.166433 225.623 0.122843 225.762 0.10303C226.107 0.0356642 226.499 0 226.931 0C228.421 0 229.166 0.673656 229.166 2.02097V15.1176C229.166 15.7239 229.269 16.1717 229.479 16.465C229.685 16.7582 230.077 16.9167 230.648 16.9326H230.779V18.4899C230.779 18.4899 230.711 18.5018 230.624 18.5295C230.537 18.5573 230.47 18.5771 230.418 18.5929C230.105 18.6444 229.776 18.6722 229.432 18.6722H229.424Z" fill="white"/>
    <path d="M234.254 18.6722V8.34938C234.254 7.96896 234.131 7.68365 233.89 7.49344C233.612 7.31908 233.256 7.22397 232.824 7.20812H232.562V5.7023C233.152 5.56361 233.672 5.49624 234.119 5.49624C235.677 5.49624 236.457 6.26501 236.457 7.80253V18.6682H234.25L234.254 18.6722ZM235.162 2.77388C234.781 2.77388 234.46 2.64707 234.199 2.39742C233.921 2.16363 233.783 1.8268 233.783 1.38694C233.783 0.978783 233.909 0.645918 234.159 0.388343C234.409 0.130769 234.753 0 235.185 0C235.617 0 235.966 0.130769 236.224 0.388343C236.485 0.645918 236.612 0.970858 236.612 1.36316C236.612 1.75547 236.481 2.10815 236.224 2.37365C235.962 2.63915 235.609 2.77388 235.158 2.77388H235.162Z" fill="white"/>
    <path d="M249.372 18.6722C248.23 18.6722 247.493 18.05 247.165 16.8018C247.113 16.8533 247.022 16.9484 246.891 17.0832C246.76 17.2218 246.653 17.3328 246.566 17.416C245.718 18.2521 244.609 18.6722 243.241 18.6722C242.065 18.6722 241.094 18.375 240.333 17.7766C239.572 17.1783 239.192 16.3184 239.192 15.189C239.192 12.5934 241.113 11.2105 244.957 11.0401L247.034 10.937V10.3228C247.034 9.26478 246.84 8.49998 246.451 8.03238C246.063 7.56478 245.338 7.32702 244.284 7.32702C243.23 7.32702 241.886 7.52516 240.361 7.91746V6.20162C241.522 5.72214 242.897 5.48438 244.49 5.48438C247.66 5.48438 249.245 6.81584 249.245 9.47876V15.8825C249.245 16.6354 249.764 17.0079 250.802 17.0079H250.933V18.4939L250.778 18.5454C250.691 18.5612 250.612 18.581 250.545 18.5969C250.303 18.6484 249.911 18.6722 249.376 18.6722H249.372ZM243.578 16.9563C244.22 16.9563 244.858 16.8256 245.5 16.5601C246.142 16.2946 246.653 15.934 247.034 15.4703V12.5261L245.346 12.6014C244.807 12.637 244.363 12.6766 244.006 12.7282C243.65 12.7797 243.253 12.8867 242.81 13.0491C242.37 13.2116 242.033 13.4573 241.811 13.7902C241.585 14.123 241.474 14.5391 241.474 15.0305C241.474 15.6447 241.668 16.1202 242.061 16.4531C242.449 16.786 242.956 16.9524 243.578 16.9524V16.9563Z" fill="white"/>
    <path d="M254.02 18.6721V8.34935C254.02 7.95308 253.889 7.65985 253.632 7.46964C253.39 7.33094 253.017 7.24376 252.514 7.21206H252.332V5.70624C252.922 5.56755 253.441 5.50018 253.889 5.50018C255.189 5.50018 255.934 6.1144 256.124 7.34283C256.386 7.02978 256.73 6.72069 257.162 6.40764C258.201 5.80135 259.223 5.50018 260.226 5.50018C263.186 5.50018 264.668 7.21999 264.668 10.6596V18.6721H262.461V10.6596C262.461 8.46427 261.498 7.36661 259.576 7.36661C258.209 7.36661 257.091 7.8342 256.223 8.76544V18.6721H254.016H254.02Z" fill="white"/>
    <path d="M273.814 18.6721C271.805 18.6721 270.307 18.0857 269.32 16.9087C268.333 15.7318 267.838 14.1309 267.838 12.098C267.838 10.0652 268.337 8.4603 269.332 7.27546C270.326 6.09062 271.828 5.49622 273.837 5.49622C274.321 5.49622 274.757 5.51999 275.137 5.57151C275.466 5.63887 275.795 5.71813 276.124 5.80134C276.417 5.86871 276.687 5.97174 276.928 6.10647V7.84609C276.687 7.74306 276.389 7.6321 276.045 7.51322C275.751 7.43001 275.438 7.35075 275.109 7.28339C274.78 7.23187 274.424 7.2081 274.043 7.2081C272.676 7.2081 271.678 7.6638 271.056 8.57522C270.433 9.48664 270.12 10.6517 270.12 12.0663C270.12 15.3237 271.428 16.9523 274.043 16.9523C274.495 16.9523 274.868 16.9167 275.161 16.8493C275.957 16.7146 276.536 16.56 276.901 16.3896V18.1293C276.053 18.4859 275.022 18.6682 273.81 18.6682L273.814 18.6721Z" fill="white"/>
    <path d="M285.428 18.6721C283.403 18.6721 281.854 18.0976 280.78 16.9444C279.706 15.7952 279.171 14.2379 279.171 12.2764C279.171 10.3148 279.639 8.69411 280.574 7.41812C281.509 6.13818 282.94 5.50018 284.862 5.50018C286.506 5.50018 287.75 5.98363 288.59 6.94656C289.431 7.9095 289.851 9.20133 289.851 10.8221V11.5393C289.851 11.6067 289.847 11.7057 289.839 11.8326C289.831 11.9594 289.815 12.0505 289.799 12.102C289.799 12.1535 289.795 12.2288 289.787 12.3319C289.779 12.4349 289.763 12.5102 289.748 12.5617H281.434C281.521 14.012 281.905 15.1057 282.591 15.8507C283.276 16.5917 284.342 16.9642 285.801 16.9642C287.013 16.9642 288.166 16.7423 289.256 16.2985V18.0381C288.963 18.1728 288.634 18.2759 288.269 18.3432C288.008 18.4304 287.604 18.5136 287.049 18.6008C286.581 18.6523 286.042 18.6761 285.44 18.6761L285.428 18.6721ZM281.481 10.9211H287.639C287.675 9.67685 287.457 8.7377 286.99 8.10763C286.486 7.45775 285.761 7.13677 284.806 7.13677C282.849 7.13677 281.739 8.40087 281.481 10.9211Z" fill="white"/>
    <path d="M151.569 47.7424V29.1733H156.245C160.299 29.1733 162.323 30.7623 162.323 33.9444C162.323 35.7236 161.527 37.0471 159.934 37.911C160.766 38.1527 161.432 38.5212 161.935 39.0126C162.438 39.504 162.799 40.1578 163.025 40.9702C163.128 41.4378 163.179 41.9054 163.179 42.369C163.179 44.2354 162.601 45.5986 161.44 46.4545C160.279 47.3105 158.757 47.7385 156.867 47.7385H151.569V47.7424ZM153.804 37.162H156.455C158.844 37.162 160.041 36.1001 160.041 33.9721C160.041 32.07 158.777 31.119 156.249 31.119H153.808V37.162H153.804ZM153.804 45.7967H156.895C158.107 45.7967 159.074 45.5273 159.791 44.9923C160.509 44.4574 160.869 43.6014 160.869 42.4245C160.869 41.2476 160.532 40.3599 159.855 39.8567C159.181 39.3574 158.202 39.1038 156.918 39.1038H153.8V45.7928L153.804 45.7967Z" fill="white"/>
    <path d="M175.365 47.7424C174.223 47.7424 173.486 47.1203 173.157 45.876C173.106 45.9275 173.015 46.0226 172.884 46.1573C172.753 46.2921 172.646 46.403 172.559 46.4902C171.711 47.3263 170.601 47.7424 169.234 47.7424C168.057 47.7424 167.087 47.4452 166.326 46.8468C165.565 46.2485 165.185 45.3886 165.185 44.2632C165.185 41.6716 167.106 40.2886 170.95 40.1182L173.027 40.0152V39.401C173.027 38.3429 172.832 37.5821 172.444 37.1105C172.056 36.6429 171.331 36.4052 170.277 36.4052C169.222 36.4052 167.879 36.5993 166.353 36.9917V35.2758C167.515 34.8003 168.89 34.5586 170.483 34.5586C173.653 34.5586 175.238 35.89 175.238 38.549V44.9448C175.238 45.6937 175.757 46.0702 176.795 46.0702H176.926V47.5522L176.771 47.6037C176.684 47.6196 176.605 47.6394 176.538 47.6552C176.296 47.7068 175.904 47.7305 175.369 47.7305L175.365 47.7424ZM169.571 46.0266C170.213 46.0266 170.851 45.8958 171.493 45.6303C172.135 45.3648 172.646 45.0042 173.027 44.5445V41.6042L171.339 41.6795C170.8 41.7152 170.356 41.7548 169.999 41.8063C169.643 41.8578 169.246 41.9648 168.802 42.1273C168.363 42.2898 168.026 42.5354 167.804 42.8683C167.578 43.2012 167.467 43.6133 167.467 44.1086C167.467 44.7228 167.661 45.1944 168.05 45.5273C168.438 45.8601 168.945 46.0266 169.571 46.0266Z" fill="white"/>
    <path d="M180.017 47.7424V37.4196C180.017 37.0234 179.886 36.7301 179.628 36.5359C179.387 36.3973 179.014 36.3101 178.511 36.2784H178.329V34.7726C178.919 34.6339 179.438 34.5665 179.886 34.5665C181.186 34.5665 181.931 35.1807 182.121 36.4091C182.383 36.0961 182.727 35.787 183.159 35.4739C184.197 34.8677 185.22 34.5665 186.222 34.5665C189.183 34.5665 190.665 36.2863 190.665 39.7259V47.7385H188.457V39.7259C188.457 37.5306 187.494 36.4329 185.573 36.4329C184.205 36.4329 183.088 36.9005 182.22 37.8317V47.7385H180.013L180.017 47.7424Z" fill="white"/>
    <path d="M196.795 47.7424H194.588V32.0541C194.588 31.6579 194.465 31.3646 194.223 31.1705C193.997 31.0318 193.652 30.9446 193.185 30.9129H193.003V29.4071C193.125 29.3397 193.252 29.2961 193.391 29.2763C193.736 29.2089 194.128 29.1733 194.56 29.1733C196.05 29.1733 196.795 29.8469 196.795 31.1942V40.2688H197.936L202.469 34.5625H204.887L199.806 40.8394C200.013 41.097 200.23 41.3665 200.456 41.6438C200.872 42.266 201.427 42.9912 202.121 43.8233C202.208 43.962 202.355 44.1602 202.561 44.4217C202.767 44.6793 202.917 44.8695 203 44.9923C203.226 45.2856 203.575 45.7413 204.051 46.3555C204.526 46.9697 204.887 47.4333 205.128 47.7424H202.374L197.96 41.9846H196.791V47.7424H196.795Z" fill="white"/>
    <path d="M138.975 48C138.535 48 138.179 47.5562 138.179 47.2233V0.844072C138.179 0.511207 138.535 0.122864 138.975 0.122864C139.415 0.122864 139.772 0.511207 139.772 0.844072V47.2233C139.772 47.5562 139.415 48 138.975 48Z" fill="white"/>
    <path d="M83.894 42.0322C84.5518 43.7441 85.2294 44.9091 85.9308 45.5234C86.7788 46.2644 88.2133 46.8984 90.2303 47.4254V47.8059H72.4339V47.4254C74.6847 46.7478 76.2223 46.1455 77.0505 45.6185C77.8787 45.0914 78.2908 44.4574 78.2908 43.7164C78.2908 43.229 78.0055 42.2383 77.4309 40.7364L73.9913 31.5073H57.023L56.1314 34.0435C54.4314 38.8225 53.5834 41.7826 53.5834 42.9238C53.5834 44.0651 53.9638 44.9171 54.7286 45.5392C55.4934 46.1613 56.9161 46.7914 58.9965 47.4254V47.8059H45.1152V47.4254C47.6711 46.4546 48.9471 44.8972 50.1121 43.332C51.1939 41.8301 52.565 38.8581 54.2175 34.4199L64.5323 6.69697L62.7808 3.23754C64.9444 2.15969 66.6524 1.12147 67.9085 0.130798L83.89 42.0362L83.894 42.0322ZM57.8829 29.1535H73.1314L65.4596 8.56736L57.8829 29.1535Z" fill="white"/>
    <path d="M38.7788 42.0322C39.4366 43.7441 40.1143 44.9091 40.8157 45.5233C41.6637 46.2644 43.0982 46.8984 45.1152 47.4254V47.8059H27.3188V47.4254C29.5696 46.7478 31.1071 46.1455 31.9353 45.6185C32.7635 45.0914 33.1756 44.4574 33.1756 43.7164C33.1756 43.229 32.8903 42.2383 32.3157 40.7364L28.8761 31.5073H11.9079L11.0163 34.0435C9.31627 38.8224 8.46826 41.7826 8.46826 42.9238C8.46826 44.0651 8.84868 44.9171 9.61347 45.5392C10.3783 46.1613 11.8009 46.7914 13.8813 47.4254V47.8059H0V47.4254C2.55593 46.4546 3.83192 44.8972 4.99695 43.332C6.07876 41.8301 7.44985 38.8581 9.10229 34.4199L19.4211 6.693L17.6696 3.23358C19.8332 2.15573 21.5412 1.1175 22.7973 0.126831L38.7788 42.0322ZM12.7678 29.1535H28.0162L20.3444 8.56735L12.7678 29.1535Z" fill="white"/>
    <path d="M114.613 21.9929C118.254 22.3654 120.834 23.2967 123.148 25.4008C125.589 27.6358 126.81 30.5682 126.81 34.194C126.81 38.0141 125.336 41.2397 122.384 43.867C119.431 46.4942 115.231 47.8059 109.774 47.8059H90.2264V47.4254C92.9408 46.9301 94.7478 45.7096 95.3858 44.8854C96.0238 44.0175 96.3408 42.1392 96.3408 39.2742V8.66246C96.3408 5.79744 96.0238 3.95083 95.3858 3.12659C94.7716 2.27857 93.0518 1.41075 90.2264 0.523104V0.130798H109.394C114.189 0.130798 117.906 1.21657 120.537 3.38813C123.188 5.57949 124.515 8.18694 124.515 11.2025C124.515 17.202 119.221 21.1291 114.609 21.9929H114.613ZM108.95 1.66039H102.043V21.2638H108.538C111.32 21.2638 115.053 20.7288 117.026 18.906C118.98 17.103 120.105 15.4188 120.105 11.3333C120.105 7.60442 119.186 6.14615 117.359 4.38276C115.548 2.63125 111.878 1.66436 108.95 1.66436V1.66039ZM102.043 46.0781H109.525C113.154 46.0781 115.94 45.139 117.882 43.2607C119.824 41.3823 120.795 38.5451 120.795 34.7449C120.795 30.7505 119.792 27.7269 117.787 25.6743C115.782 23.6216 113.135 22.7221 109.723 22.7855H102.043V46.0781Z" fill="white"/>
  </g>
  <defs>
    <clipPath id="clip0_1386_3020">
      <rect width="289.843" height="48" fill="white"/>
    </clipPath>
  </defs>
</svg>
